<?xml version="1.0" encoding="UTF-8"?>
<!DOCTYPE svg PUBLIC "-//W3C//DTD SVG 1.1//EN" "http://www.w3.org/Graphics/SVG/1.1/DTD/svg11.dtd">
<!-- Creator: CorelDRAW 2020 (64-Bit) -->
<svg xmlns="http://www.w3.org/2000/svg" xml:space="preserve" width="21.1666mm" height="21.1666mm" version="1.1" style="shape-rendering:geometricPrecision; text-rendering:geometricPrecision; image-rendering:optimizeQuality; fill-rule:evenodd; clip-rule:evenodd"
viewBox="0 0 2116.66 2116.66"
 xmlns:xlink="http://www.w3.org/1999/xlink"
 xmlns:xodm="http://www.corel.com/coreldraw/odm/2003">
 <defs>
  <style type="text/css">
   <![CDATA[
    .fil1 {fill:#282829}
    .fil0 {fill:black}
    .fil2 {fill:#010101}
   ]]>
  </style>
 </defs>
 <g id="Capa_x0020_1">
  <metadata id="CorelCorpID_0Corel-Layer"/>
  <g id="_1415865088">
   <path class="fil0" d="M-1695.21 276c-206.73,25.5 -380.91,203.03 -353.62,442.07 23.44,205.28 211.11,380.07 446.96,350.47 202.55,-25.43 376.18,-211.54 345.83,-449.06 -25.11,-196.46 -209.68,-371.8 -439.17,-343.48z"/>
   <path class="fil0" d="M-1277.28 1077.48c-190.68,32.44 -354.2,210.19 -314.37,443.08 31.7,185.38 213.67,347.13 438.38,308.87 187.4,-31.91 348.7,-206.94 313.64,-434.61 -29.18,-189.46 -210.34,-356.02 -437.65,-317.34zm15.46 267.03c36.45,23.61 84.47,14.56 102.25,-18.36 35.73,-66.17 -37.73,-143.29 -104.33,-87.31 -36.73,30.87 -29.29,76.14 2.08,105.67zm100.37 270.53c1.95,-42.69 8.5,-160.54 -14.41,-193.37 -31.88,-45.69 -82,-21.73 -91.56,29.99l-2.11 11.41c-4.39,33.82 -5.13,158.07 4.56,187.6 20.04,61 97.13,54.83 102.98,-28.01l0.54 -7.62z"/>
   <path class="fil0" d="M-1551.95 1762.67l-43.76 -61.36c-17.69,-25.98 -26.52,-40.84 -38.49,-70.28 -23.56,-57.95 -36.38,-113.18 -35.81,-182.05 0.76,-90.33 28.75,-177.93 77.6,-248.98 15.87,-23.08 32.66,-38.4 44.24,-61.86 -178.44,-9.74 -357.6,7.03 -514.79,61.08 -137.85,47.41 -278.72,134.57 -320.4,258.45 -18.83,55.96 -24.51,202.95 6.23,249.17 45.25,68.06 144.11,55.86 237.14,55.86 196.01,0 392.03,0.22 588.04,-0.03z"/>
  </g>
  <g id="_1382781056">
   <path class="fil0" d="M3142.19 1655.62l0.59 148.34c-103.4,-1.34 -77.95,-12.88 -174.08,56.01 -11.48,8.24 -21.54,14.84 -33.49,23.42 -9.67,6.94 -31.14,16.81 -20.54,30.57 7.57,9.83 92.71,4.87 111.13,4.87 114.84,0 229.68,0 344.51,0 21.01,0 159.5,12.96 94.24,-30.58 -9.73,-6.49 -15.9,-11.66 -24.96,-17.69 -17.66,-11.79 -32.9,-23.57 -50.02,-35.33 -58.21,-39.95 -35.43,-33.65 -139.26,-31.13l0.07 -148.55c245.2,1.05 490.32,0.6 734.98,0.11 74.13,-0.15 65.25,-52.27 65.25,-117.29l0.05 -1104.75c0.1,-74.53 -51.25,-67.38 -116.6,-67.38l-1472 0c-143.3,0 -119.68,1.04 -119.68,246.8l0 919.64c0,64.31 -9.7,122.01 62.65,123.07 243.91,3.58 492.95,1.3 737.16,-0.13zm-117.82 -154.57c-38.75,9.59 -31.59,56.33 -0.86,62.29 19.8,3.84 340,1.81 348.55,-0.51 31.4,-8.53 31.12,-56.28 -3.32,-62.35 -23.25,-4.11 -87.64,-0.74 -115.16,-0.74 -41.05,0 -202.52,-5.3 -229.21,1.31zm-585.15 -92.98l1514.86 0.28 -0.18 -945.1 -1513.82 -0.2 -0.86 945.02z"/>
   <path class="fil0" d="M2749.95 630.95c-22.12,5.3 -35.58,15.08 -54.11,21.24l-52.34 -34.53 -58.32 58.02c3.88,13.73 27.95,35.89 36.55,51.24l-22.16 52.55 -61.56 8.96 -0.73 87.73 61.48 9.02c3.51,5.64 20.07,45.1 22.97,52.43 -8.46,17.33 -27.7,34.63 -36.93,51.26l61.58 62.34 52 -37.49c15.94,8.09 32.21,16.53 51.67,20.31l8.27 63.72 88.91 0.28 8.18 -63.37c21.15,-5.03 37.33,-16.6 53.66,-20.73 17.28,9.47 33.74,28.77 51.22,37.07l60.81 -61.37c-9.9,-17.29 -31.08,-37.39 -37.35,-52.02l16.09 -37.27c9.42,-26.14 15.65,-14.32 67.71,-23.55l0.28 -88.23c-72.99,-13.22 -53.25,8.19 -72.67,-36.7 -4.01,-9.27 -8.85,-16.76 -11.43,-24.94 9.83,-16.38 28.79,-34.23 36.45,-51.24l-61.62 -61.4c-15.97,10.47 -33.51,26.29 -49.4,37.99 -11.54,-4.57 -49.68,-15.1 -54.02,-27.89l-8.04 -56.98 -88.79 0.08 -8.36 63.47zm30.07 80.2c-60.27,11.34 -112.83,70.16 -99.06,144.03 11.12,59.67 68.14,112.17 142.62,99.48 59.83,-10.2 114.27,-69.12 100.99,-143.68 -10.86,-61.04 -70.42,-113.78 -144.55,-99.83z"/>
   <path class="fil0" d="M3138.25 600.25l717.51 1.35 0.03 -55.55c-16.53,-3.87 -701.52,-3.83 -717.52,-0.03l-0.02 54.23z"/>
   <path class="fil0" d="M3309.08 714l546.72 1.42 -0.03 -55.56c-15.01,-3.49 -532,-3.42 -546.67,0.04l-0.02 54.1z"/>
   <polygon class="fil0" points="3388.68,827.93 3855.5,829.36 3855.69,772.5 3388.77,772.52 "/>
   <polygon class="fil0" points="2833.41,1318.03 3254.63,1319.08 3254.71,1261.98 2833.36,1262.76 "/>
   <path class="fil0" d="M3678.32 1005.9c7.67,14.79 92.53,91.02 108.36,111.09 -10.42,15.74 -42.34,43.74 -57.82,59.58 -7.85,8.02 -25.64,19.14 -23.84,32.76 1.07,8.07 11.48,38.29 15.49,43.04l133.94 -132.13c-5.15,-11.57 -124.5,-128.67 -142.48,-145.42 -12.08,5.83 -23.67,21.47 -33.65,31.08z"/>
   <polygon class="fil0" points="3537,932.07 3657.96,1315.23 3695.45,1303.16 3575.04,920.84 "/>
   <path class="fil0" d="M3521.21 1260.87l33.13 -32.38 -108.91 -110.89c11.92,-14.26 28.33,-28.96 42.12,-42.82 11.06,-11.11 34.6,-32.1 41.59,-43.21l-15.13 -48.38 -135.47 133.8c5.2,9.6 123.77,132.18 142.67,143.88z"/>
   <rect class="fil1" x="2537.28" y="1159.57" width="717.66" height="56.83"/>
  </g>
  <g id="_1382780480">
   <path class="fil2" d="M760.42 339.63c-39.17,14.77 -13.4,73.04 -74.18,126.95 -24.18,21.45 -98.27,57.18 -140.48,63.96 -87.69,14.09 -126.37,-47.64 -162.32,-35.21 -8.98,3.11 -98.28,90.05 -104.89,101.03 -25.93,43.12 41.51,56.02 33.87,155.62 -3.25,42.36 -39.05,119.96 -59.25,145.76 -40.84,52.16 -119.21,56.91 -130.48,74.48 -11.67,18.23 -6.44,72.2 -6.52,97 -0.38,117.39 22.64,63.06 94.53,106.58 65.41,39.61 105.15,146.34 102.03,206.01 -3.98,76.19 -69.22,98.39 -20.12,146.58 39.28,38.55 81.45,95.9 115.69,86.64 19.33,-5.22 71.06,-57.96 156.47,-31.78 48.43,14.84 109.6,44.28 132.71,72.42 81.81,99.62 -26.08,129.98 191.41,118.29 43.56,-2.34 39.54,-18.6 49.32,-54.5 13.59,-49.88 51.01,-88.51 93.75,-106.54 68.71,-28.99 93.36,-27.37 82.09,-124.07 -6.17,-52.89 -83.48,-37.3 -166.94,-36.84 -65.64,0.37 -135.65,5.04 -197.94,-8.87 -225.88,-50.45 -358.35,-280.01 -297.79,-493.89 31.02,-109.57 96.71,-183.33 172.83,-232.15 145.95,-93.61 308.76,-47.89 449.62,-59 37.6,-2.96 40.74,-25.2 40.83,-62.38 0.36,-153.77 -124.99,-19.14 -181.66,-229.7 -9.35,-34.72 -34.05,-30.31 -73.75,-30.12 -30.22,0.15 -72.85,-6.06 -98.83,3.73z"/>
   <path class="fil2" d="M1781.98 739.7c-63.77,1.47 -233.14,-13.85 -273.15,17.21 -36.48,28.32 -109.57,116.01 -146.99,145.97 -27.12,21.72 -349.95,11.8 -429.37,11.77 -51.43,-0.03 -95.14,-13.09 -96.39,47.3 -1.38,66.88 31.18,56.09 91.5,56.01 96.69,-0.13 383.33,6.33 439.55,-1.14 48.72,-6.49 125.27,-99.1 160.28,-133.86 41.53,-41.24 28.99,-39.76 108.1,-39.62 47.41,0.08 99.76,-2.12 146.47,0.94 30.11,38.91 62.39,102.21 157.54,84.83 61.84,-11.3 112.3,-65.11 114.15,-133.76 3.38,-125.55 -155.82,-198.65 -247.47,-92.45 -10.73,12.44 -12.06,22.58 -24.22,36.8zm110.52 -9.92c-81.69,29.01 -40.41,149.09 41.26,125.05 76.96,-22.65 46.87,-156.36 -41.26,-125.05z"/>
   <path class="fil2" d="M1454.24 1101.88l-580.67 0.16c-30.93,2.97 -37.43,19.04 -37.47,50.34 -0.09,69.73 50.07,52.74 111.01,52.74l509.4 0.04c51.49,139.73 264.27,104.62 268.43,-47.96 3.58,-131.71 -178.25,-219.4 -270.7,-55.32zm108.79 -9.44c-83.35,34.05 -35.96,148.96 43.25,123.34 83.83,-27.13 37.96,-156.52 -43.25,-123.34z"/>
   <path class="fil2" d="M1276.04 631.99c-15.61,7.94 -61.44,63.45 -79.47,81.32 -26.37,26.14 -103.57,14.26 -146.93,14.26 -53.73,0 -107.78,-0.63 -161.45,-0.22 -73.43,0.55 -57.68,80.74 -37.12,96.06 19.38,14.44 275.59,7.56 320.71,7.48 73.06,-0.14 73.66,-20.21 106.91,-55.03 16.81,-17.6 25.73,-25.73 40.3,-42.75 12.37,-14.44 24.98,-28.61 43.12,-42.2 161.49,27.35 231.41,-154.16 121.4,-245.9 -78.19,-65.2 -201.54,-16.22 -222.14,78.96 -11.72,54.11 5.44,66.33 14.67,108.02zm109.77 -141.22c-84.25,17.66 -63.02,149.15 28.64,128.16 75.93,-17.38 55.96,-145.89 -28.64,-128.16z"/>
   <path class="fil2" d="M1336.43 1406.34l-62.11 -73.56c-27.79,-28.56 -39.86,-43.61 -92.64,-43.97 -91.14,-0.64 -182.48,0.71 -273.66,0.11 -55.06,-0.36 -75.91,2.11 -71.56,62.78 3.76,52.45 48.2,40.52 96.01,40.49 49.83,-0.02 242.83,-9.73 266.84,10.7 1,0.85 57.87,60.43 55.75,73.32 -3.31,20.27 -29,52.88 -6.91,112.34 62.94,169.46 317.82,84.23 264.62,-89.21 -22.52,-73.41 -85.66,-103.43 -176.34,-93zm29.91 70.77c-89.13,20.05 -55.51,146.88 28.61,128.27 76.43,-16.91 58.13,-147.79 -28.61,-128.27z"/>
  </g>
 </g>
</svg>
